<?xml version="1.0" encoding="utf-8"?>
<!-- Generator: Adobe Illustrator 15.0.0, SVG Export Plug-In . SVG Version: 6.00 Build 0)  -->
<!DOCTYPE svg PUBLIC "-//W3C//DTD SVG 1.1//EN" "http://www.w3.org/Graphics/SVG/1.1/DTD/svg11.dtd">
<svg version="1.1" id="Layer_1" xmlns="http://www.w3.org/2000/svg" xmlns:xlink="http://www.w3.org/1999/xlink" x="0px" y="0px"
	 width="64px" height="64px" viewBox="-20 -20 64 64" enable-background="new -20 -20 64 64" xml:space="preserve">
<path fill="none" d="M-12-12h48v48h-48V-12z"/>
<path d="M26,4H-2c-3.32,0-6,2.68-6,6v12h8v8h24v-8h8V10C32,6.68,29.32,4,26,4z M20,26H4V16h16V26z M26,12c-1.1,0-2-0.9-2-2
	s0.9-2,2-2s2,0.9,2,2S27.1,12,26,12z M24-6H0v8h24V-6z"/>
</svg>
