<?xml version="1.0" encoding="utf-8"?>
<!-- Generator: Adobe Illustrator 15.0.0, SVG Export Plug-In . SVG Version: 6.00 Build 0)  -->
<!DOCTYPE svg PUBLIC "-//W3C//DTD SVG 1.1//EN" "http://www.w3.org/Graphics/SVG/1.1/DTD/svg11.dtd">
<svg version="1.1" id="Layer_1" xmlns="http://www.w3.org/2000/svg" xmlns:xlink="http://www.w3.org/1999/xlink" x="0px" y="0px"
	 width="64px" height="64px" viewBox="0 0 64 64" enable-background="new 0 0 64 64" xml:space="preserve">
<path d="M0,0v64h64V0H0z M32,59C17.087,59,5,46.913,5,32C5,17.086,17.087,5,32,5s27,12.086,27,27C59,46.913,46.913,59,32,59z"/>
<path fill="#ED1F24" d="M33.395,55.377c-0.621,0-1.246-0.192-1.78-0.587c-1.262-0.932-1.593-2.679-0.759-4.007
	c1.996-3.183,4.089-6.296,6.342-9.429c-4.856,4.226-8.939,8.302-12.371,12.342c-0.971,1.142-2.637,1.393-3.901,0.587
	c-1.264-0.808-1.738-2.424-1.11-3.785c0.654-1.418,1.696-2.517,2.534-3.399c0.183-0.192,0.362-0.381,0.531-0.567
	c1.356-1.502,2.729-2.982,4.103-4.464c1.25-1.347,2.5-2.695,3.739-4.062c0.697-0.769,1.412-1.544,2.136-2.33
	c0.553-0.6,1.108-1.202,1.663-1.81c-0.539,0.368-1.071,0.752-1.597,1.158c-1.451,1.119-2.937,2.219-4.426,3.32
	c-2.347,1.735-4.773,3.53-7.003,5.377c-1.109,0.919-2.712,0.919-3.822,0.004c-1.11-0.916-1.414-2.49-0.724-3.753
	c0.025-0.047,0.051-0.094,0.078-0.14c-0.013,0.006-0.026,0.012-0.039,0.018c-1.075,0.464-2.322,0.26-3.193-0.523
	c-0.871-0.782-1.207-2-0.861-3.119c0.683-2.203,2.458-4.091,3.885-5.607c0.336-0.358,0.655-0.694,0.923-1.004
	c0.814-0.938,1.627-1.894,2.437-2.857c-0.034,0.026-0.068,0.052-0.103,0.078c-0.227,0.172-0.464,0.379-0.711,0.592
	c-1.074,0.926-2.41,2.078-4.163,2.335c-1.06,0.157-2.125-0.267-2.79-1.108s-0.831-1.974-0.434-2.97
	c0.262-0.659,0.594-1.325,0.971-1.987c-0.255-0.169-0.489-0.38-0.69-0.631c-1.035-1.294-0.824-3.182,0.47-4.217
	c0.867-0.693,1.717-1.478,2.618-2.309c1.329-1.227,2.704-2.495,4.287-3.609l0.769-0.536c1.302-0.904,2.73-1.896,3.857-2.976
	c0.438-0.612,0.982-1.338,1.781-1.93c1.188-0.883,2.845-0.765,3.897,0.276s1.188,2.696,0.318,3.895
	c-0.425,0.585-0.899,1.135-1.404,1.652c-0.01,0.013-0.02,0.026-0.029,0.04c1.721-1.25,3.434-2.552,5.164-3.926
	c1.287-1.023,3.159-0.817,4.195,0.46c1.036,1.277,0.851,3.151-0.416,4.2c-0.488,0.404-1.195,1.549-1.763,2.469
	c-0.586,0.948-1.19,1.928-1.896,2.769c-0.794,0.947-1.583,1.9-2.372,2.856c0.908-0.785,1.824-1.533,2.716-2.262
	c1.381-1.128,2.685-2.193,3.939-3.364c0.168-0.157,0.352-0.318,0.546-0.483c0.062-0.09,0.126-0.182,0.188-0.271
	c1.015-1.462,2.165-3.119,4.047-3.622c1.103-0.295,2.274,0.061,3.028,0.917c0.753,0.856,0.955,2.065,0.522,3.12
	c-0.729,1.775-2.178,2.999-3.366,3.983c-0.188,0.247-0.38,0.483-0.581,0.7c-0.943,1.017-1.897,2.016-2.855,3.011
	c1.545-0.82,3.03-1.631,4.489-2.544c1.164-0.728,2.674-0.572,3.664,0.375c0.866,0.828,1.145,2.076,0.753,3.175
	c0.375-0.267,0.746-0.535,1.113-0.804c1.138-1.383,2.532-2.536,4.281-2.612c1.276-0.063,2.473,0.72,2.934,1.927
	c0.461,1.207,0.097,2.574-0.903,3.392c-0.676,0.552-1.365,1.088-2.062,1.611c-0.424,0.588-0.845,1.247-1.066,1.595
	c-0.214,0.336-0.407,0.638-0.572,0.879c-0.911,1.334-1.862,2.629-2.822,3.894c0.568-0.027,1.148,0.11,1.662,0.416
	c1.088,0.644,1.655,1.9,1.419,3.142c-0.944,4.964-4.107,9.002-6.898,12.564c-0.693,0.885-1.371,1.749-1.988,2.6
	c-0.973,1.34-2.849,1.64-4.19,0.665c-0.817-0.594-1.247-1.522-1.237-2.461c-1.025,0.823-1.987,1.659-2.826,2.631
	C35.076,55.021,34.239,55.377,33.395,55.377z"/>
</svg>
